<?xml version="1.0" standalone="no"?>
<!DOCTYPE svg PUBLIC "-//W3C//DTD SVG 20010904//EN"
 "http://www.w3.org/TR/2001/REC-SVG-20010904/DTD/svg10.dtd">
<svg version="1.0" xmlns="http://www.w3.org/2000/svg"
 width="32.000000pt" height="32.000000pt" viewBox="0 0 32.000000 32.000000"
 preserveAspectRatio="xMidYMid meet">

<g transform="translate(0.000000,32.000000) scale(0.100000,-0.100000)"
fill="#000000" stroke="none">
<path d="M52 290 c3 -19 0 -31 -9 -34 -11 -4 -13 -32 -11 -128 l3 -123 97 -3
c92 -3 98 -2 122 23 27 27 33 63 16 96 -7 13 -7 19 0 19 5 0 10 7 10 15 0 8
-8 15 -17 15 -16 0 -16 -2 -3 -11 12 -9 12 -10 -3 -5 -10 3 -21 6 -23 6 -2 0
1 9 8 19 10 17 9 23 -6 40 -11 12 -23 21 -27 21 -15 0 -22 -50 -9 -65 10 -12
9 -15 -4 -15 -13 0 -16 11 -16 50 0 46 -2 50 -22 49 -17 -1 -19 -2 -5 -6 9 -2
17 -14 17 -26 0 -18 -6 -22 -30 -22 -33 0 -53 31 -29 46 11 7 10 9 -3 9 -10 0
-19 11 -23 30 -9 41 -39 41 -33 0z m28 -18 c0 -7 -4 -10 -10 -7 -5 3 -10 16
-10 28 0 18 2 19 10 7 5 -8 10 -21 10 -28z m-18 -64 c-13 -13 -26 8 -17 30 6
16 7 16 17 -1 7 -13 7 -22 0 -29z m25 10 c-3 -8 -6 -5 -6 6 -1 11 2 17 5 13 3
-3 4 -12 1 -19z m139 0 c4 -7 3 -8 -4 -4 -7 4 -12 2 -12 -5 0 -7 -3 -10 -6 -6
-6 5 3 27 11 27 2 0 7 -5 11 -12z m-72 -24 c21 -8 20 -27 -3 -48 -18 -16 -19
-16 -29 13 -8 22 -7 31 1 35 7 2 13 5 14 5 1 1 8 -2 17 -5z m-60 -74 c10 -38
22 -70 27 -70 5 0 9 -4 9 -10 0 -5 -15 -11 -32 -12 -28 -1 -27 -2 12 -8 l45
-7 -51 -1 -51 -2 -2 90 c-2 70 1 90 12 90 8 0 20 -27 31 -70z m21 10 c6 -50
-7 -30 -20 30 -5 24 -4 32 3 25 6 -5 14 -30 17 -55z m97 8 c3 -7 13 -13 24
-13 29 0 41 -47 21 -79 -24 -36 -62 -44 -95 -19 -35 26 -41 74 -13 102 23 23
57 28 63 9z"/>
</g>
</svg>
